<?xml version='1.0' encoding='utf-8'?>
<svg xmlns="http://www.w3.org/2000/svg" xmlns:xlink="http://www.w3.org/1999/xlink" version="1.1" width="800" height="450.83129856996607" viewBox="50.380021824771916 109.63732939356586 781.2689165412806 440.27560022082">
  <defs/>
  <g>
    <g/>
    <rect fill="#FFFFFF" stroke="none" x="0" y="0" width="800" height="600" transform="matrix(1.100000023841858 0 0 1.100000023841858 0 0)"/>
    <g>
      <path fill="none" stroke="black" paint-order="fill stroke markers" d=" M 119.28148816192095 361.4680690824243 Q 175.87570974422255 306.7156872681446 234.42898901465372 259.502683937347" stroke-miterlimit="10" stroke-dasharray=""/>
      <path fill="none" stroke="black" paint-order="fill stroke markers" d=" M 234.42898901465372 259.502683937347 Q 268.02239599348434 195.89986459497646 267.38291925305157 125.03732972735187" stroke-miterlimit="10" stroke-dasharray=""/>
      <g>
        <text fill="none" stroke="white" font-family="arial" font-size="14px" font-style="normal" font-weight="normal" text-decoration="undefined" x="-137.78913174139518" y="-136.40262851726476" text-anchor="start" dominant-baseline="central" transform="matrix(1.100000023841858 0 0 1.100000023841858 406.74985012465913 344.12783033474625)" stroke-linejoin="round" stroke-miterlimit="10" stroke-width="2.200000047683716" stroke-dasharray="">1</text>
        <text fill="black" stroke="none" font-family="arial" font-size="14px" font-style="normal" font-weight="normal" text-decoration="undefined" x="-137.78913174139518" y="-136.40262851726476" text-anchor="start" dominant-baseline="central" transform="matrix(1.100000023841858 0 0 1.100000023841858 406.74985012465913 344.12783033474625)">1</text>
      </g>
      <path fill="none" stroke="black" paint-order="fill stroke markers" d=" M 119.28148816192095 361.4680690824243 Q 119.83139926514616 456.6873482891465 171.89685959199124 529.972265943953" stroke-miterlimit="10" stroke-dasharray=""/>
      <path fill="none" stroke="black" paint-order="fill stroke markers" d=" M 171.89685959199124 529.972265943953 Q 255.26324921671085 561.5462212502682 344.61563252688825 534.5129292805997" stroke-miterlimit="10" stroke-dasharray=""/>
      <g>
        <text fill="none" stroke="white" font-family="arial" font-size="14px" font-style="normal" font-weight="normal" text-decoration="undefined" x="-140.24770207501" y="184.33324972879893" text-anchor="start" dominant-baseline="central" transform="matrix(1.100000023841858 0 0 1.100000023841858 406.74985012465913 344.12783033474625)" stroke-linejoin="round" stroke-miterlimit="10" stroke-width="2.200000047683716" stroke-dasharray="">1</text>
        <text fill="black" stroke="none" font-family="arial" font-size="14px" font-style="normal" font-weight="normal" text-decoration="undefined" x="-140.24770207501" y="184.33324972879893" text-anchor="start" dominant-baseline="central" transform="matrix(1.100000023841858 0 0 1.100000023841858 406.74985012465913 344.12783033474625)">1</text>
      </g>
      <path fill="none" stroke="black" paint-order="fill stroke markers" d=" M 344.61563252688825 534.5129292805997 Q 432.06799821250496 536.8626128989555 496.114711374682 483.9668326912988" stroke-miterlimit="10" stroke-dasharray=""/>
      <path fill="none" stroke="black" paint-order="fill stroke markers" d=" M 496.114711374682 483.9668326912988 Q 516.9155906656986 403.230525308874 505.6203507074959 315.59647087391744" stroke-miterlimit="10" stroke-dasharray=""/>
      <g>
        <text fill="none" stroke="white" font-family="arial" font-size="14px" font-style="normal" font-weight="normal" text-decoration="undefined" x="88.96303224363427" y="52.16205178850418" text-anchor="start" dominant-baseline="central" transform="matrix(1.100000023841858 0 0 1.100000023841858 406.74985012465913 344.12783033474625)" stroke-linejoin="round" stroke-miterlimit="10" stroke-width="2.200000047683716" stroke-dasharray="">1</text>
        <text fill="black" stroke="none" font-family="arial" font-size="14px" font-style="normal" font-weight="normal" text-decoration="undefined" x="88.96303224363427" y="52.16205178850418" text-anchor="start" dominant-baseline="central" transform="matrix(1.100000023841858 0 0 1.100000023841858 406.74985012465913 344.12783033474625)">1</text>
      </g>
      <path fill="none" stroke="black" paint-order="fill stroke markers" d=" M 344.61563252688825 534.5129292805997 Q 293.4635005828728 484.9585672412165 246.8808947426849 430.81094362420885" stroke-miterlimit="10" stroke-dasharray=""/>
      <path fill="none" stroke="black" paint-order="fill stroke markers" d=" M 246.8808947426849 430.81094362420885 Q 182.0106464498332 399.0985168451276 119.28148816192095 361.4680690824243" stroke-miterlimit="10" stroke-dasharray=""/>
      <g>
        <text fill="none" stroke="white" font-family="arial" font-size="14px" font-style="normal" font-weight="normal" text-decoration="undefined" x="-207.71481760088807" y="48.62834555007793" text-anchor="start" dominant-baseline="central" transform="matrix(1.100000023841858 0 0 1.100000023841858 406.74985012465913 344.12783033474625)" stroke-linejoin="round" stroke-miterlimit="10" stroke-width="2.200000047683716" stroke-dasharray="">1</text>
        <text fill="black" stroke="none" font-family="arial" font-size="14px" font-style="normal" font-weight="normal" text-decoration="undefined" x="-207.71481760088807" y="48.62834555007793" text-anchor="start" dominant-baseline="central" transform="matrix(1.100000023841858 0 0 1.100000023841858 406.74985012465913 344.12783033474625)">1</text>
      </g>
      <path fill="none" stroke="black" paint-order="fill stroke markers" d=" M 267.38291925305157 125.03732972735187 Q 180.9705014014444 134.72619207950189 115.6966301740598 190.33617035259545" stroke-miterlimit="10" stroke-dasharray=""/>
      <path fill="none" stroke="black" paint-order="fill stroke markers" d=" M 115.6966301740598 190.33617035259545 Q 90.96891769865044 274.2663474477016 119.28148816192095 361.4680690824243" stroke-miterlimit="10" stroke-dasharray=""/>
      <g>
        <text fill="none" stroke="white" font-family="arial" font-size="14px" font-style="normal" font-weight="normal" text-decoration="undefined" x="-278.9120256193189" y="-62.76690477787353" text-anchor="start" dominant-baseline="central" transform="matrix(1.100000023841858 0 0 1.100000023841858 406.74985012465913 344.12783033474625)" stroke-linejoin="round" stroke-miterlimit="10" stroke-width="2.200000047683716" stroke-dasharray="">1</text>
        <text fill="black" stroke="none" font-family="arial" font-size="14px" font-style="normal" font-weight="normal" text-decoration="undefined" x="-278.9120256193189" y="-62.76690477787353" text-anchor="start" dominant-baseline="central" transform="matrix(1.100000023841858 0 0 1.100000023841858 406.74985012465913 344.12783033474625)">1</text>
      </g>
      <path fill="none" stroke="black" paint-order="fill stroke markers" d=" M 267.38291925305157 125.03732972735187 Q 352.3461404735319 127.86698737154074 422.64795507335464 169.94510531218376" stroke-miterlimit="10" stroke-dasharray=""/>
      <path fill="none" stroke="black" paint-order="fill stroke markers" d=" M 422.64795507335464 169.94510531218376 Q 471.46274793773057 235.42017057499675 505.6203507074959 315.59647087391744" stroke-miterlimit="10" stroke-dasharray=""/>
      <g>
        <text fill="none" stroke="white" font-family="arial" font-size="14px" font-style="normal" font-weight="normal" text-decoration="undefined" x="51.60565992668276" y="-95.48395338564339" text-anchor="start" dominant-baseline="central" transform="matrix(1.100000023841858 0 0 1.100000023841858 406.74985012465913 344.12783033474625)" stroke-linejoin="round" stroke-miterlimit="10" stroke-width="2.200000047683716" stroke-dasharray="">1</text>
        <text fill="black" stroke="none" font-family="arial" font-size="14px" font-style="normal" font-weight="normal" text-decoration="undefined" x="51.60565992668276" y="-95.48395338564339" text-anchor="start" dominant-baseline="central" transform="matrix(1.100000023841858 0 0 1.100000023841858 406.74985012465913 344.12783033474625)">1</text>
      </g>
      <path fill="none" stroke="black" paint-order="fill stroke markers" d=" M 505.6203507074959 315.59647087391744 Q 434.4138375579473 334.6906826188956 395.6551121208944 390.6174561119464" stroke-miterlimit="10" stroke-dasharray=""/>
      <path fill="none" stroke="black" paint-order="fill stroke markers" d=" M 395.6551121208944 390.6174561119464 Q 379.5593808512135 463.64240071303334 344.61563252688825 534.5129292805997" stroke-miterlimit="10" stroke-dasharray=""/>
      <g>
        <text fill="none" stroke="white" font-family="arial" font-size="14px" font-style="normal" font-weight="normal" text-decoration="undefined" x="-32.89531444774021" y="108.15996708288395" text-anchor="start" dominant-baseline="central" transform="matrix(1.100000023841858 0 0 1.100000023841858 406.74985012465913 344.12783033474625)" stroke-linejoin="round" stroke-miterlimit="10" stroke-width="2.200000047683716" stroke-dasharray="">1</text>
        <text fill="black" stroke="none" font-family="arial" font-size="14px" font-style="normal" font-weight="normal" text-decoration="undefined" x="-32.89531444774021" y="108.15996708288395" text-anchor="start" dominant-baseline="central" transform="matrix(1.100000023841858 0 0 1.100000023841858 406.74985012465913 344.12783033474625)">1</text>
      </g>
      <path fill="none" stroke="black" paint-order="fill stroke markers" d=" M 505.6203507074959 315.59647087391744 Q 582.2234693115213 298.372070405397 655.2179463692698 288.43522457892385" stroke-miterlimit="10" stroke-dasharray=""/>
      <path fill="none" stroke="black" paint-order="fill stroke markers" d=" M 655.2179463692698 288.43522457892385 Q 726.6082632421737 282.6958063940608 795.2694453900483 275.6008926394898" stroke-miterlimit="10" stroke-dasharray=""/>
      <g>
        <text fill="none" stroke="white" font-family="arial" font-size="14px" font-style="normal" font-weight="normal" text-decoration="undefined" x="286.26704497402375" y="-56.15536044933117" text-anchor="start" dominant-baseline="central" transform="matrix(1.100000023841858 0 0 1.100000023841858 406.74985012465913 344.12783033474625)" stroke-linejoin="round" stroke-miterlimit="10" stroke-width="2.200000047683716" stroke-dasharray="">1</text>
        <text fill="black" stroke="none" font-family="arial" font-size="14px" font-style="normal" font-weight="normal" text-decoration="undefined" x="286.26704497402375" y="-56.15536044933117" text-anchor="start" dominant-baseline="central" transform="matrix(1.100000023841858 0 0 1.100000023841858 406.74985012465913 344.12783033474625)">1</text>
      </g>
      <path fill="none" stroke="black" paint-order="fill stroke markers" d=" M 831.4511278334401 261.4192106729352 A 22.000000476837158 22.000000476837158 0 1 1 831.4511168334407 261.39721067612504" stroke-miterlimit="10" stroke-dasharray=""/>
      <text fill="none" stroke="white" font-family="arial" font-size="14px" font-style="normal" font-weight="normal" text-decoration="undefined" x="376.34113149350713" y="-89.33178823204915" text-anchor="start" dominant-baseline="central" transform="matrix(1.100000023841858 0 0 1.100000023841858 406.74985012465913 344.12783033474625)" stroke-linejoin="round" stroke-miterlimit="10" stroke-width="2.200000047683716" stroke-dasharray="">1</text>
      <text fill="black" stroke="none" font-family="arial" font-size="14px" font-style="normal" font-weight="normal" text-decoration="undefined" x="376.34113149350713" y="-89.33178823204915" text-anchor="start" dominant-baseline="central" transform="matrix(1.100000023841858 0 0 1.100000023841858 406.74985012465913 344.12783033474625)">1</text>
      <path fill="white" stroke="black" paint-order="stroke fill markers" d=" M 50.380021824771916 361.4680690824243 C 50.380021824771916 352.96288297807934 81.2282556062018 346.06806874863827 119.28148816192095 346.06806874863827 C 157.33472071764 346.06806874863827 188.18295449906995 352.96288297807934 188.18295449906995 361.4680690824243 C 188.18295449906995 369.9732551867692 157.33472071764 376.8680694162103 119.28148816192095 376.8680694162103 C 81.2282556062018 376.8680694162103 50.380021824771916 369.9732551867692 50.380021824771916 361.4680690824243 Z" stroke-linejoin="round" stroke-miterlimit="10" stroke-dasharray=""/>
      <g fill="white"/>
      <g stroke="black" stroke-linejoin="round" stroke-miterlimit="10" stroke-dasharray=""/>
      <text fill="black" stroke="none" font-family="arial" font-size="14px" font-style="normal" font-weight="normal" text-decoration="undefined" x="-316.97256415979945" y="15.763853065307694" text-anchor="start" dominant-baseline="central" transform="matrix(1.100000023841858 0 0 1.100000023841858 406.74985012465913 344.12783033474625)">init,green light,still</text>
      <path fill="white" stroke="black" paint-order="stroke fill markers" d=" M 296.26128577571103 534.5129292805997 C 296.26128577571103 526.0077431762547 317.9102618022837 519.1129289468137 344.61563252688825 519.1129289468137 C 371.3210032514928 519.1129289468137 392.96997927806547 526.0077431762547 392.96997927806547 534.5129292805997 C 392.96997927806547 543.0181153849446 371.3210032514928 549.9129296143857 344.61563252688825 549.9129296143857 C 317.9102618022837 549.9129296143857 296.26128577571103 543.0181153849446 296.26128577571103 534.5129292805997 Z" stroke-linejoin="round" stroke-miterlimit="10" stroke-dasharray=""/>
      <g fill="white"/>
      <g stroke="black" stroke-linejoin="round" stroke-miterlimit="10" stroke-dasharray=""/>
      <text fill="black" stroke="none" font-family="arial" font-size="14px" font-style="normal" font-weight="normal" text-decoration="undefined" x="-93.44414723106638" y="173.07735892669783" text-anchor="start" dominant-baseline="central" transform="matrix(1.100000023841858 0 0 1.100000023841858 406.74985012465913 344.12783033474625)">red light,still</text>
      <path fill="white" stroke="black" paint-order="stroke fill markers" d=" M 196.76323998803622 125.03732972735187 C 196.76323998803622 116.53214362300693 228.3807438141084 109.63732939356586 267.3829192530515 109.63732939356586 C 306.38509469199465 109.63732939356586 338.0025985180668 116.53214362300693 338.0025985180668 125.03732972735187 C 338.0025985180668 133.5425158316968 306.38509469199465 140.43733006113789 267.3829192530515 140.43733006113789 C 228.3807438141084 140.43733006113789 196.76323998803622 133.5425158316968 196.76323998803622 125.03732972735187 Z" stroke-linejoin="round" stroke-miterlimit="10" stroke-dasharray=""/>
      <g fill="white"/>
      <g stroke="black" stroke-linejoin="round" stroke-miterlimit="10" stroke-dasharray=""/>
      <text fill="black" stroke="none" font-family="arial" font-size="14px" font-style="normal" font-weight="normal" text-decoration="undefined" x="-183.89691416844164" y="-199.17317805339616" text-anchor="start" dominant-baseline="central" transform="matrix(1.100000023841858 0 0 1.100000023841858 406.74985012465913 344.12783033474625)">green light,moving</text>
      <path fill="white" stroke="black" paint-order="stroke fill markers" d=" M 443.5654177218665 315.59647087391744 C 443.5654177218665 307.0912847695725 471.34835445451415 300.19647054013143 505.6203507074959 300.19647054013143 C 539.8923469604777 300.19647054013143 567.6752836931254 307.0912847695725 567.6752836931254 315.59647087391744 C 567.6752836931254 324.1016569782624 539.8923469604777 330.99647120770345 505.6203507074959 330.99647120770345 C 471.34835445451415 330.99647120770345 443.5654177218665 324.1016569782624 443.5654177218665 315.59647087391744 Z" stroke-linejoin="round" stroke-miterlimit="10" stroke-dasharray=""/>
      <g fill="white"/>
      <g stroke="black" stroke-linejoin="round" stroke-miterlimit="10" stroke-dasharray=""/>
      <text fill="black" stroke="none" font-family="arial" font-size="14px" font-style="normal" font-weight="normal" text-decoration="undefined" x="40.46869709022859" y="-25.937598947662035" text-anchor="start" dominant-baseline="central" transform="matrix(1.100000023841858 0 0 1.100000023841858 406.74985012465913 344.12783033474625)">red light,moving</text>
      <path fill="white" stroke="black" paint-order="stroke fill markers" d=" M 758.889952414044 275.6008926394898 C 758.889952414044 267.09570653514487 775.1776043876944 260.2008923057038 795.2694453900483 260.2008923057038 C 815.3612863924022 260.2008923057038 831.6489383660526 267.09570653514487 831.6489383660526 275.6008926394898 C 831.6489383660526 284.10607874383476 815.3612863924022 291.0008929732758 795.2694453900483 291.0008929732758 C 775.1776043876944 291.0008929732758 758.889952414044 284.10607874383476 758.889952414044 275.6008926394898 Z" stroke-linejoin="round" stroke-miterlimit="10" stroke-dasharray=""/>
      <g fill="white"/>
      <g stroke="black" stroke-linejoin="round" stroke-miterlimit="10" stroke-dasharray=""/>
      <text fill="black" stroke="none" font-family="arial" font-size="14px" font-style="normal" font-weight="normal" text-decoration="undefined" x="327.12735877904896" y="-62.297214736341" text-anchor="start" dominant-baseline="central" transform="matrix(1.100000023841858 0 0 1.100000023841858 406.74985012465913 344.12783033474625)">accident</text>
      <path fill="lightblue" stroke="black" paint-order="stroke fill markers" d=" M 200.00296287786472 246.3026836512447 L 268.85501515144273 246.3026836512447 L 268.85501515144273 246.3026836512447 A 6.6000001430511475 6.6000001430511475 0 0 1 275.4550152944939 252.90268379429585 L 275.4550152944939 266.10268408039815 L 275.4550152944939 266.10268408039815 A 6.6000001430511475 6.6000001430511475 0 0 1 268.85501515144273 272.7026842234493 L 200.00296287786472 272.7026842234493 L 200.00296287786472 272.7026842234493 A 6.6000001430511475 6.6000001430511475 0 0 1 193.40296273481357 266.10268408039815 L 193.40296273481357 252.90268379429585 L 193.40296273481357 252.90268379429585 A 6.6000001430511475 6.6000001430511475 0 0 1 200.00296287786472 246.3026836512447 Z" stroke-linejoin="round" stroke-miterlimit="10" stroke-dasharray=""/>
      <g fill="lightblue"/>
      <g stroke="black" stroke-linejoin="round" stroke-miterlimit="10" stroke-dasharray=""/>
      <text fill="black" stroke="none" font-family="arial" font-size="14px" font-style="normal" font-weight="normal" text-decoration="undefined" x="-188.95171160516037" y="-76.93194960290785" text-anchor="start" dominant-baseline="central" transform="matrix(1.100000023841858 0 0 1.100000023841858 406.74985012465913 344.12783033474625)">accelerate</text>
      <path fill="lightblue" stroke="black" paint-order="stroke fill markers" d=" M 159.30379291279388 516.7722656578507 L 184.4899262711886 516.7722656578507 L 184.4899262711886 516.7722656578507 A 6.6000001430511475 6.6000001430511475 0 0 1 191.08992641423976 523.3722658009018 L 191.08992641423976 536.5722660870041 L 191.08992641423976 536.5722660870041 A 6.6000001430511475 6.6000001430511475 0 0 1 184.4899262711886 543.1722662300552 L 159.30379291279388 543.1722662300552 L 159.30379291279388 543.1722662300552 A 6.6000001430511475 6.6000001430511475 0 0 1 152.70379276974273 536.5722660870041 L 152.70379276974273 523.3722658009018 L 152.70379276974273 523.3722658009018 A 6.6000001430511475 6.6000001430511475 0 0 1 159.30379291279388 516.7722656578507 Z" stroke-linejoin="round" stroke-miterlimit="10" stroke-dasharray=""/>
      <g fill="lightblue"/>
      <g stroke="black" stroke-linejoin="round" stroke-miterlimit="10" stroke-dasharray=""/>
      <text fill="black" stroke="none" font-family="arial" font-size="14px" font-style="normal" font-weight="normal" text-decoration="undefined" x="-225.95095622601502" y="168.94948325557922" text-anchor="start" dominant-baseline="central" transform="matrix(1.100000023841858 0 0 1.100000023841858 406.74985012465913 344.12783033474625)">wait</text>
      <path fill="lightblue" stroke="black" paint-order="stroke fill markers" d=" M 461.68868523789297 470.7668324051965 L 530.540737511471 470.7668324051965 L 530.540737511471 470.7668324051965 A 6.6000001430511475 6.6000001430511475 0 0 1 537.1407376545221 477.36683254824766 L 537.1407376545221 490.56683283434995 L 537.1407376545221 490.56683283434995 A 6.6000001430511475 6.6000001430511475 0 0 1 530.540737511471 497.1668329774011 L 461.68868523789297 497.1668329774011 L 461.68868523789297 497.1668329774011 A 6.6000001430511475 6.6000001430511475 0 0 1 455.0886850948418 490.56683283434995 L 455.0886850948418 477.36683254824766 L 455.0886850948418 477.36683254824766 A 6.6000001430511475 6.6000001430511475 0 0 1 461.68868523789297 470.7668324051965 Z" stroke-linejoin="round" stroke-miterlimit="10" stroke-dasharray=""/>
      <g fill="lightblue"/>
      <g stroke="black" stroke-linejoin="round" stroke-miterlimit="10" stroke-dasharray=""/>
      <text fill="black" stroke="none" font-family="arial" font-size="14px" font-style="normal" font-weight="normal" text-decoration="undefined" x="48.9443944749697" y="127.12636302329445" text-anchor="start" dominant-baseline="central" transform="matrix(1.100000023841858 0 0 1.100000023841858 406.74985012465913 344.12783033474625)">accelerate</text>
      <path fill="lightblue" stroke="black" paint-order="stroke fill markers" d=" M 234.28782806348752 417.61094333810655 L 259.4739614218822 417.61094333810655 L 259.4739614218822 417.61094333810655 A 6.6000001430511475 6.6000001430511475 0 0 1 266.07396156493337 424.2109434811577 L 266.07396156493337 437.41094376726 L 266.07396156493337 437.41094376726 A 6.6000001430511475 6.6000001430511475 0 0 1 259.4739614218822 444.01094391031114 L 234.28782806348752 444.01094391031114 L 234.28782806348752 444.01094391031114 A 6.6000001430511475 6.6000001430511475 0 0 1 227.68782792043638 437.41094376726 L 227.68782792043638 424.2109434811577 L 227.68782792043638 424.2109434811577 A 6.6000001430511475 6.6000001430511475 0 0 1 234.28782806348752 417.61094333810655 Z" stroke-linejoin="round" stroke-miterlimit="10" stroke-dasharray=""/>
      <g fill="lightblue"/>
      <g stroke="black" stroke-linejoin="round" stroke-miterlimit="10" stroke-dasharray=""/>
      <text fill="black" stroke="none" font-family="arial" font-size="14px" font-style="normal" font-weight="normal" text-decoration="undefined" x="-157.78365302105274" y="78.8028285551425" text-anchor="start" dominant-baseline="central" transform="matrix(1.100000023841858 0 0 1.100000023841858 406.74985012465913 344.12783033474625)">wait</text>
      <path fill="lightblue" stroke="black" paint-order="stroke fill markers" d=" M 97.53535048354968 177.13617006649315 L 133.85790986456993 177.13617006649315 L 133.85790986456993 177.13617006649315 A 6.6000001430511475 6.6000001430511475 0 0 1 140.45791000762108 183.7361702095443 L 140.45791000762108 196.9361704956466 L 140.45791000762108 196.9361704956466 A 6.6000001430511475 6.6000001430511475 0 0 1 133.85790986456993 203.53617063869774 L 97.53535048354968 203.53617063869774 L 97.53535048354968 203.53617063869774 A 6.6000001430511475 6.6000001430511475 0 0 1 90.93535034049853 196.9361704956466 L 90.93535034049853 183.7361702095443 L 90.93535034049853 183.7361702095443 A 6.6000001430511475 6.6000001430511475 0 0 1 97.53535048354968 177.13617006649315 Z" stroke-linejoin="round" stroke-miterlimit="10" stroke-dasharray=""/>
      <g fill="lightblue"/>
      <g stroke="black" stroke-linejoin="round" stroke-miterlimit="10" stroke-dasharray=""/>
      <text fill="black" stroke="none" font-family="arial" font-size="14px" font-style="normal" font-weight="normal" text-decoration="undefined" x="-282.10408449005985" y="-139.8105969534604" text-anchor="start" dominant-baseline="central" transform="matrix(1.100000023841858 0 0 1.100000023841858 406.74985012465913 344.12783033474625)">brake</text>
      <path fill="lightblue" stroke="black" paint-order="stroke fill markers" d=" M 410.0548883941573 156.74510502608146 L 435.241021752552 156.74510502608146 L 435.241021752552 156.74510502608146 A 6.6000001430511475 6.6000001430511475 0 0 1 441.84102189560315 163.3451051691326 L 441.84102189560315 176.5451054552349 L 441.84102189560315 176.5451054552349 A 6.6000001430511475 6.6000001430511475 0 0 1 435.241021752552 183.14510559828605 L 410.0548883941573 183.14510559828605 L 410.0548883941573 183.14510559828605 A 6.6000001430511475 6.6000001430511475 0 0 1 403.4548882511061 176.5451054552349 L 403.4548882511061 163.3451051691326 L 403.4548882511061 163.3451051691326 A 6.6000001430511475 6.6000001430511475 0 0 1 410.0548883941573 156.74510502608146 Z" stroke-linejoin="round" stroke-miterlimit="10" stroke-dasharray=""/>
      <g fill="lightblue"/>
      <g stroke="black" stroke-linejoin="round" stroke-miterlimit="10" stroke-dasharray=""/>
      <text fill="black" stroke="none" font-family="arial" font-size="14px" font-style="normal" font-weight="normal" text-decoration="undefined" x="2.00458017987577" y="-158.34792840659426" text-anchor="start" dominant-baseline="central" transform="matrix(1.100000023841858 0 0 1.100000023841858 406.74985012465913 344.12783033474625)">wait</text>
      <path fill="lightblue" stroke="black" paint-order="stroke fill markers" d=" M 377.49383243038426 377.4174558258441 L 413.8163918114045 377.4174558258441 L 413.8163918114045 377.4174558258441 A 6.6000001430511475 6.6000001430511475 0 0 1 420.41639195445566 384.01745596889526 L 420.41639195445566 397.21745625499756 L 420.41639195445566 397.21745625499756 A 6.6000001430511475 6.6000001430511475 0 0 1 413.8163918114045 403.8174563980487 L 377.49383243038426 403.8174563980487 L 377.49383243038426 403.8174563980487 A 6.6000001430511475 6.6000001430511475 0 0 1 370.8938322873331 397.21745625499756 L 370.8938322873331 384.01745596889526 L 370.8938322873331 384.01745596889526 A 6.6000001430511475 6.6000001430511475 0 0 1 377.49383243038426 377.4174558258441 Z" stroke-linejoin="round" stroke-miterlimit="10" stroke-dasharray=""/>
      <g fill="lightblue"/>
      <g stroke="black" stroke-linejoin="round" stroke-miterlimit="10" stroke-dasharray=""/>
      <text fill="black" stroke="none" font-family="arial" font-size="14px" font-style="normal" font-weight="normal" text-decoration="undefined" x="-27.59637914560706" y="42.26329524505878" text-anchor="start" dominant-baseline="central" transform="matrix(1.100000023841858 0 0 1.100000023841858 406.74985012465913 344.12783033474625)">brake</text>
      <path fill="lightblue" stroke="black" paint-order="stroke fill markers" d=" M 642.6248796900725 275.23522429282156 L 667.8110130484672 275.23522429282156 L 667.8110130484672 275.23522429282156 A 6.6000001430511475 6.6000001430511475 0 0 1 674.4110131915184 281.8352244358727 L 674.4110131915184 295.035224721975 L 674.4110131915184 295.035224721975 A 6.6000001430511475 6.6000001430511475 0 0 1 667.8110130484672 301.63522486502615 L 642.6248796900725 301.63522486502615 L 642.6248796900725 301.63522486502615 A 6.6000001430511475 6.6000001430511475 0 0 1 636.0248795470213 295.035224721975 L 636.0248795470213 281.8352244358727 L 636.0248795470213 281.8352244358727 A 6.6000001430511475 6.6000001430511475 0 0 1 642.6248796900725 275.23522429282156 Z" stroke-linejoin="round" stroke-miterlimit="10" stroke-dasharray=""/>
      <g fill="lightblue"/>
      <g stroke="black" stroke-linejoin="round" stroke-miterlimit="10" stroke-dasharray=""/>
      <text fill="black" stroke="none" font-family="arial" font-size="14px" font-style="normal" font-weight="normal" text-decoration="undefined" x="213.43184041178168" y="-50.62964049883426" text-anchor="start" dominant-baseline="central" transform="matrix(1.100000023841858 0 0 1.100000023841858 406.74985012465913 344.12783033474625)">wait</text>
      <path fill="black" stroke="none" paint-order="stroke fill markers" d=" M 217.54435503449017 273.30768491761 L 206.19471650273266 290.5851072867722 L 203.89336538471446 284.7620681549232 L 198.5584610111905 281.484447520255 Z"/>
      <path fill="black" stroke="none" paint-order="stroke fill markers" d=" M 267.1132805463093 140.4516620468475 L 271.4586572604169 160.66159326237792 L 265.69507652291816 158.21513893380754 L 259.6163393357769 159.7161239134505 Z"/>
      <path fill="black" stroke="none" paint-order="stroke fill markers" d=" M 162.587359162556 516.0385614090994 L 147.5239944030597 501.8816316343797 L 153.6564809567098 500.6180611500978 L 157.80432790906073 495.9277128304823 Z"/>
      <path fill="black" stroke="none" paint-order="stroke fill markers" d=" M 305.4665090519369 543.5908419542723 L 286.5355350025271 551.8939642624497 L 287.7786928430592 545.7573071689686 L 285.0912248593963 540.1020867898645 Z"/>
      <path fill="black" stroke="none" paint-order="stroke fill markers" d=" M 477.63871737633565 497.7512702472835 L 463.7864756420322 513.0952924532894 L 462.400273746524 506.98935714374534 L 457.627751044391 502.936330033415 Z"/>
      <path fill="black" stroke="none" paint-order="stroke fill markers" d=" M 507.35790722526593 330.9476110510011 L 514.7827911420991 350.2399597246472 L 508.7097066594544 348.7162646875391 L 502.9370220510738 351.14115934743944 Z"/>
      <path fill="black" stroke="none" paint-order="stroke fill markers" d=" M 258.96640380950134 444.6945524311993 L 276.5794769687683 455.5159789734944 L 270.8287714030065 457.9925465973164 L 267.71414752469025 463.4242240358311 Z"/>
      <path fill="black" stroke="none" paint-order="stroke fill markers" d=" M 143.86674172000966 375.9417081550889 L 164.01037216003252 380.5847428544814 L 159.3489876165093 384.76511315349205 L 158.1281021610971 390.9062401188145 Z"/>
      <path fill="black" stroke="none" paint-order="stroke fill markers" d=" M 133.40786842820887 176.37477979208822 L 146.50405393972142 160.38060761682297 L 148.18309177470695 166.4125918382989 L 153.14551257558094 170.23075651448835 Z"/>
      <path fill="black" stroke="none" paint-order="stroke fill markers" d=" M 114.71439269531982 346.1649133541402 L 104.36266237097527 328.2717499162228 L 110.59934392130845 328.8265516278111 L 115.921570188528 325.52838406688187 Z"/>
      <path fill="black" stroke="none" paint-order="stroke fill markers" d=" M 402.585634674119 158.88678827517006 L 382.1301310940348 155.90417334710074 L 386.43458220485564 151.35711909912865 L 387.1499105447291 145.1368050342585 Z"/>
      <path fill="black" stroke="none" paint-order="stroke fill markers" d=" M 498.948125556461 300.3848758022128 L 485.1805381009502 284.96485134766533 L 491.40003188010144 284.2424256902122 L 495.9421715089506 279.932788896759 Z"/>
      <path fill="black" stroke="none" paint-order="stroke fill markers" d=" M 406.5227502892883 376.411602358494 L 415.7728506675668 357.9248703185754 L 418.73973009775494 363.43863746510726 L 424.4214939298246 366.06952352421985 Z"/>
      <path fill="black" stroke="none" paint-order="stroke fill markers" d=" M 351.9055825316021 519.2619783626815 L 354.5272446424079 498.7570885482801 L 359.1494505587705 502.98073793787074 L 365.3814049256151 503.5863338997257 Z"/>
      <path fill="black" stroke="none" paint-order="stroke fill markers" d=" M 634.9039905967122 291.33128552984573 L 616.2467417070452 300.2324473861991 L 617.294047750918 294.0593483468255 L 614.428033162392 288.49248548900295 Z"/>
      <path fill="black" stroke="none" paint-order="stroke fill markers" d=" M 759.6846251690522 279.1691114336307 L 740.5398192140947 286.96654841452425 L 741.9455120091411 280.8650707684616 L 739.4091796575408 275.1404729745836 Z"/>
      <path fill="black" stroke="none" paint-order="stroke fill markers" d=" M 829.5199238428289 270.4327243371661 L 825.7481994886962 250.10791895260166 L 831.4402408475197 252.71649459246532 L 837.5590193184967 251.38813028906216 Z"/>
    </g>
  </g>
</svg>
